<svg t="1684324017014" class="icon" viewBox="0 0 1024 1024" version="1.1" xmlns="http://www.w3.org/2000/svg" p-id="1576"
    width="300" height="300">
    <path
        d="M631.808 838.784a32.704 32.704 0 0 1-32.704 32.704H32.64a32.704 32.704 0 0 1 0-65.408h566.464a32.704 32.704 0 0 1 32.704 32.704m0-217.6a32.64 32.64 0 0 1-32.704 32.64H32.64a32.704 32.704 0 0 1 0-65.344h566.464a32.704 32.704 0 0 1 32.704 32.704m187.84 0l138.944 138.944V482.24z m-187.84-217.6a32.704 32.704 0 0 1-32.704 32.704H32.64a32.64 32.64 0 0 1 0-65.344h566.464a32.704 32.704 0 0 1 32.704 32.64m371.968-30.144a32.704 32.704 0 0 1 20.224 30.144v435.776a32.704 32.704 0 0 1-55.808 23.104l-217.6-217.6a32.576 32.576 0 0 1 0-46.208l217.6-217.6a32.576 32.576 0 0 1 35.584-7.104M1024 186.24a32.704 32.704 0 0 1-32.704 32.704H32.64a32.704 32.704 0 0 1 0-65.344h958.656a32.64 32.64 0 0 1 32.704 32.64"
        p-id="1577"></path>
</svg>