<svg t="1684323977964" class="icon" viewBox="0 0 1024 1024" version="1.1" xmlns="http://www.w3.org/2000/svg" p-id="1418"
    width="300" height="300">
    <path
        d="M392.128 838.784a32.704 32.704 0 0 1 32.704-32.704h566.464a32.704 32.704 0 0 1 0 65.408H424.832a32.704 32.704 0 0 1-32.704-32.704m0-217.6a32.704 32.704 0 0 1 32.704-32.704h566.464a32.704 32.704 0 1 1 0 65.344H424.832a32.64 32.64 0 0 1-32.704-32.64M65.344 482.24v277.888l138.944-138.944z m326.784-78.976a32.704 32.704 0 0 1 32.704-32.64h566.464a32.64 32.64 0 1 1 0 65.344H424.832a32.704 32.704 0 0 1-32.704-32.704M20.16 373.12a32.512 32.512 0 0 1 35.584 7.104l217.6 217.6a32.576 32.576 0 0 1 0 46.208l-217.6 217.6A32.64 32.64 0 0 1 0 838.528V402.752a32.64 32.64 0 0 1 20.16-30.144M0 184.896a32.64 32.64 0 0 1 32.64-32.64h958.656a32.704 32.704 0 1 1 0 65.344H32.96a32.64 32.64 0 0 1-32.64-32.704"
        p-id="1419"></path>
</svg>