<svg width="1024" height="626" viewBox="0 0 1024 626" fill="none" xmlns="http://www.w3.org/2000/svg">
<path d="M863.229 616H241.229H198.729V327.5C198.729 307.066 215.295 290.5 235.729 290.5C256.164 290.5 272.729 273.935 272.729 253.5V222.25C272.729 184.557 303.286 154 340.979 154H649.229C681.814 154 708.229 180.415 708.229 213C708.229 245.585 734.645 272 767.229 272H785.729C828.531 272 863.229 306.698 863.229 349.5V616Z" fill="#F3F6FF"/>
<path d="M612.117 149.535L611.108 184.712C610.421 208.697 622.613 231.18 643.02 243.562L651.699 243.802C678.003 232.902 695.483 207.446 696.302 178.845L697.075 151.887L692.176 151.752C677.186 151.337 663.322 143.684 654.927 131.191L646.248 130.95C642.675 142.404 631.977 150.085 620.056 149.754L612.117 149.535Z" fill="#FFBD32"/>
<path d="M603.068 149.522L602.292 176.819C601.488 205.101 617.297 231.214 642.678 243.526C668.978 232.665 686.449 207.289 687.26 178.772L688.025 151.893L683.126 151.757C668.136 151.338 654.27 143.703 645.871 131.244C636.625 143.223 622.237 150.057 607.148 149.635L603.068 149.522Z" fill="#54B7FF"/>
<path fill-rule="evenodd" clip-rule="evenodd" d="M611.229 157.979L610.605 179.823C609.955 202.601 622.679 223.625 643.1 233.515C664.261 224.788 678.328 204.353 678.983 181.386L679.598 159.88L675.618 159.77C663.576 159.435 652.435 153.303 645.676 143.29C638.233 152.918 626.671 158.409 614.549 158.071L611.229 157.979Z" stroke="black" stroke-width="2"/>
<path fill-rule="evenodd" clip-rule="evenodd" d="M666.567 176.778L639.576 204.99L625.931 190.302L631.854 184.606L639.683 193.034L660.746 171.017L666.567 176.778Z" fill="white"/>
<path d="M768.729 139C771.49 139 773.729 136.761 773.729 134C773.729 131.239 771.49 129 768.729 129C765.968 129 763.729 131.239 763.729 134C763.729 136.761 765.968 139 768.729 139Z" fill="#54B7FF"/>
<path d="M799.229 163.5C805.856 163.5 811.229 158.127 811.229 151.5C811.229 144.873 805.856 139.5 799.229 139.5C792.602 139.5 787.229 144.873 787.229 151.5C787.229 158.127 792.602 163.5 799.229 163.5Z" stroke="#54B7FF"/>
<path d="M302.984 108.343C311.835 110.03 320.379 104.222 322.065 95.37C323.752 86.5183 317.944 77.9752 309.092 76.2884C300.24 74.6017 291.697 80.41 290.011 89.2616C288.324 98.1133 294.132 106.656 302.984 108.343Z" fill="#54B7FF"/>
<path d="M279.53 139.906C294.75 142.806 309.438 132.819 312.338 117.6C315.238 102.381 305.252 87.6922 290.033 84.7921C274.814 81.8919 260.125 91.8785 257.225 107.098C254.325 122.317 264.311 137.005 279.53 139.906Z" stroke="#7268F5"/>
<path fill-rule="evenodd" clip-rule="evenodd" d="M300.086 625.466C298.046 625.466 296.454 623.7 296.666 621.671L321.827 380.432L331.77 381.5L303.502 622.428C303.298 624.16 301.83 625.466 300.086 625.466Z" fill="#627AC1"/>
<path fill-rule="evenodd" clip-rule="evenodd" d="M411.954 625.466C413.994 625.466 415.586 623.7 415.374 621.671L390.213 380.432L380.27 381.5L408.538 622.428C408.742 624.16 410.21 625.466 411.954 625.466Z" fill="#627AC1"/>
<path fill-rule="evenodd" clip-rule="evenodd" d="M572.086 625.466C570.046 625.466 568.454 623.7 568.666 621.671L593.827 380.432L603.77 381.5L575.502 622.428C575.298 624.16 573.83 625.466 572.086 625.466Z" fill="#627AC1"/>
<path fill-rule="evenodd" clip-rule="evenodd" d="M683.954 625.466C685.994 625.466 687.586 623.7 687.374 621.671L662.213 380.432L652.27 381.5L680.538 622.428C680.742 624.16 682.21 625.466 683.954 625.466Z" fill="#627AC1"/>
<path d="M398.27 370H307.27V385H398.27V370Z" fill="#A3BAFF"/>
<path d="M680.27 370H398.27V385H680.27V370Z" fill="#CCD9FF"/>
<path d="M433.241 247.786C433.241 246.127 434.587 244.783 436.247 244.786L451.432 244.815L443.512 352.628H433.241V247.786Z" fill="#706AC7"/>
<path d="M443.512 249.78C443.512 247.019 445.751 244.78 448.512 244.78H582.31C585.071 244.78 587.31 247.019 587.31 249.78V352.628H443.512V249.78Z" fill="#CFCCFF"/>
<path d="M575.463 249.916H455.36C452.598 249.916 450.36 252.154 450.36 254.916V342.493C450.36 345.254 452.598 347.493 455.36 347.493H575.463C578.224 347.493 580.463 345.254 580.463 342.493V254.916C580.463 252.154 578.224 249.916 575.463 249.916Z" fill="#282F48"/>
<path fill-rule="evenodd" clip-rule="evenodd" d="M565.3 249.916C568.349 260.905 571.067 284.71 559.063 292.713C552.851 296.854 543.301 296.125 533.889 295.407C519.956 294.345 506.327 293.305 504.283 308.119C504.045 309.849 503.823 311.528 503.608 313.156C500.735 334.898 499.071 347.493 475.181 347.493H575.462C578.223 347.493 580.462 345.254 580.462 342.493V254.916C580.462 252.154 578.223 249.916 575.462 249.916H565.3Z" fill="#2F3B67"/>
<path d="M501.139 268.746H471.478C469.269 268.746 467.478 270.537 467.478 272.746V275.018C467.478 277.227 469.269 279.018 471.478 279.018H501.139C503.348 279.018 505.139 277.227 505.139 275.018V272.746C505.139 270.537 503.348 268.746 501.139 268.746Z" fill="#5FFFD8"/>
<path d="M562.768 268.746H550.225C548.016 268.746 546.225 270.537 546.225 272.746V275.018C546.225 277.227 548.016 279.018 550.225 279.018H562.768C564.977 279.018 566.768 277.227 566.768 275.018V272.746C566.768 270.537 564.977 268.746 562.768 268.746Z" fill="#5FFFD8"/>
<path d="M565.055 296.136H469.19C468.244 296.136 467.478 296.903 467.478 297.848C467.478 298.794 468.244 299.56 469.19 299.56H565.055C566 299.56 566.767 298.794 566.767 297.848C566.767 296.903 566 296.136 565.055 296.136Z" fill="#5FFFD8"/>
<path d="M565.055 308.12H469.19C468.244 308.12 467.478 308.886 467.478 309.831C467.478 310.777 468.244 311.543 469.19 311.543H565.055C566 311.543 566.767 310.777 566.767 309.831C566.767 308.886 566 308.12 565.055 308.12Z" fill="#5FFFD8"/>
<path d="M525.682 320.103H469.19C468.244 320.103 467.478 320.869 467.478 321.815C467.478 322.76 468.244 323.526 469.19 323.526H525.682C526.627 323.526 527.394 322.76 527.394 321.815C527.394 320.869 526.627 320.103 525.682 320.103Z" fill="#5FFFD8"/>
<path d="M433.241 352.628H479.461V369.747H438.241C435.479 369.747 433.241 367.508 433.241 364.747V352.628Z" fill="#706AC7"/>
<path d="M479.461 352.628H628.395V364.747C628.395 367.508 626.156 369.747 623.395 369.747H479.461V352.628Z" fill="#2C2770"/>
<path d="M457.345 319H382.729L393.113 370H467.729L457.345 319Z" fill="#BE7430"/>
<path d="M383.08 319H456.729L446.378 370H372.729L383.08 319Z" fill="#FF9330"/>
<path d="M387.424 326.994C387.67 325.831 388.696 325 389.883 325H446.213C447.813 325 449.006 326.476 448.673 328.042L441.034 364.005C440.787 365.168 439.762 366 438.575 366H382.244C380.645 366 379.452 364.524 379.785 362.957L387.424 326.994Z" fill="#FFB36C"/>
<path d="M446.729 340L441.269 365.276C441.178 365.698 440.8 366 440.362 366H372.987C372.897 366 372.811 365.988 372.729 365.964V365.928C382.407 366.172 403.619 363.845 409.555 356.61C413.491 351.813 418.204 352.407 422.789 352.53C426.849 352.64 430.518 352.739 432.653 349.392C434.636 346.284 437.147 346.044 439.558 345.813C442.466 345.535 445.226 345.271 446.729 340Z" fill="#F2A864"/>
<path fill-rule="evenodd" clip-rule="evenodd" d="M387.254 316.447C387.563 317.044 387.729 317.763 387.729 318.5L386.586 318.5C386.586 317.451 385.979 316.6 385.231 316.6C384.483 316.6 383.876 317.451 383.876 318.5C383.876 319.549 384.483 320.4 385.231 320.4C385.371 320.4 385.505 320.37 385.632 320.315L385.971 321.842C385.469 322.061 384.929 322.052 384.43 321.817C383.931 321.581 383.498 321.131 383.193 320.53C382.887 319.93 382.725 319.21 382.729 318.472C382.733 317.735 382.904 317.019 383.216 316.425C383.528 315.831 383.966 315.391 384.468 315.166C384.969 314.942 385.509 314.945 386.009 315.175C386.509 315.405 386.945 315.85 387.254 316.447Z" fill="#C4C4C4"/>
<path fill-rule="evenodd" clip-rule="evenodd" d="M445.253 316.447C445.563 317.044 445.729 317.763 445.729 318.5L444.586 318.5C444.586 317.451 443.979 316.6 443.231 316.6C442.483 316.6 441.876 317.451 441.876 318.5C441.876 319.549 442.483 320.4 443.231 320.4C443.37 320.4 443.505 320.37 443.632 320.315L443.971 321.842C443.469 322.061 442.929 322.052 442.43 321.817C441.931 321.581 441.498 321.131 441.193 320.53C440.888 319.93 440.725 319.21 440.729 318.472C440.734 317.735 440.904 317.019 441.216 316.425C441.528 315.831 441.966 315.391 442.468 315.166C442.969 314.942 443.509 314.945 444.009 315.175C444.509 315.405 444.945 315.85 445.253 316.447Z" fill="#C4C4C4"/>
<path fill-rule="evenodd" clip-rule="evenodd" d="M426.254 316.447C426.563 317.044 426.729 317.763 426.729 318.5L425.586 318.5C425.586 317.451 424.979 316.6 424.231 316.6C423.482 316.6 422.876 317.451 422.876 318.5C422.876 319.549 423.482 320.4 424.231 320.4C424.371 320.4 424.505 320.37 424.632 320.315L424.971 321.842C424.469 322.061 423.929 322.052 423.43 321.817C422.931 321.581 422.498 321.131 422.193 320.53C421.887 319.93 421.725 319.21 421.729 318.472C421.733 317.735 421.904 317.019 422.216 316.425C422.528 315.831 422.966 315.391 423.468 315.166C423.969 314.942 424.509 314.945 425.009 315.175C425.509 315.405 425.945 315.85 426.254 316.447Z" fill="#C4C4C4"/>
<path fill-rule="evenodd" clip-rule="evenodd" d="M407.254 316.447C407.563 317.044 407.729 317.763 407.729 318.5L406.586 318.5C406.586 317.451 405.98 316.6 405.231 316.6C404.483 316.6 403.876 317.451 403.876 318.5C403.876 319.549 404.483 320.4 405.231 320.4C405.371 320.4 405.505 320.37 405.632 320.315L405.971 321.842C405.469 322.061 404.929 322.052 404.43 321.817C403.931 321.581 403.498 321.131 403.193 320.53C402.887 319.93 402.725 319.21 402.729 318.472C402.733 317.735 402.904 317.019 403.216 316.425C403.528 315.831 403.966 315.391 404.468 315.166C404.969 314.942 405.509 314.945 406.009 315.175C406.509 315.405 406.945 315.85 407.254 316.447Z" fill="#C4C4C4"/>
<path d="M392.126 332.707C392.329 331.713 393.199 331 394.209 331H397.602C398.948 331 399.955 332.241 399.685 333.565L399.332 335.293C399.129 336.287 398.259 337 397.249 337H393.856C392.51 337 391.503 335.759 391.773 334.435L392.126 332.707Z" fill="#FFDAB8"/>
<path d="M407.126 332.707C407.329 331.713 408.199 331 409.209 331H412.602C413.948 331 414.955 332.241 414.685 333.565L414.332 335.293C414.129 336.287 413.259 337 412.249 337H408.856C407.51 337 406.503 335.759 406.773 334.435L407.126 332.707Z" fill="#FFDAB8"/>
<path d="M421.126 332.707C421.329 331.713 422.199 331 423.209 331H426.602C427.948 331 428.955 332.241 428.685 333.565L428.332 335.293C428.129 336.287 427.259 337 426.249 337H422.856C421.51 337 420.503 335.759 420.773 334.435L421.126 332.707Z" fill="#FFDAB8"/>
<path d="M436.126 332.707C436.329 331.713 437.199 331 438.209 331H441.602C442.948 331 443.955 332.241 443.685 333.565L443.332 335.293C443.129 336.287 442.259 337 441.249 337H437.856C436.51 337 435.503 335.759 435.773 334.435L436.126 332.707Z" fill="#FFDAB8"/>
<path d="M389.126 343.707C389.329 342.713 390.199 342 391.209 342H394.602C395.948 342 396.955 343.241 396.685 344.565L396.332 346.293C396.129 347.287 395.259 348 394.249 348H390.856C389.51 348 388.503 346.759 388.773 345.435L389.126 343.707Z" fill="#FFDAB8"/>
<path d="M404.126 343.707C404.329 342.713 405.199 342 406.209 342H409.602C410.948 342 411.955 343.241 411.685 344.565L411.332 346.293C411.129 347.287 410.259 348 409.249 348H405.856C404.51 348 403.503 346.759 403.773 345.435L404.126 343.707Z" fill="#FFDAB8"/>
<path d="M418.126 343.707C418.329 342.713 419.199 342 420.209 342H423.602C424.948 342 425.955 343.241 425.685 344.565L425.332 346.293C425.129 347.287 424.259 348 423.249 348H419.856C418.51 348 417.503 346.759 417.773 345.435L418.126 343.707Z" fill="#FFDAB8"/>
<path d="M433.126 343.707C433.329 342.713 434.199 342 435.209 342H438.602C439.948 342 440.955 343.241 440.685 344.565L440.332 346.293C440.129 347.287 439.259 348 438.249 348H434.856C433.51 348 432.503 346.759 432.773 345.435L433.126 343.707Z" fill="#FFDAB8"/>
<path d="M386.126 354.707C386.329 353.713 387.199 353 388.209 353H391.602C392.948 353 393.955 354.241 393.685 355.565L393.332 357.293C393.129 358.287 392.259 359 391.249 359H387.856C386.51 359 385.503 357.759 385.773 356.435L386.126 354.707Z" fill="#FFDAB8"/>
<path d="M401.126 354.707C401.329 353.713 402.199 353 403.209 353H406.602C407.948 353 408.955 354.241 408.685 355.565L408.332 357.293C408.129 358.287 407.259 359 406.249 359H402.856C401.51 359 400.503 357.759 400.773 356.435L401.126 354.707Z" fill="#FFDAB8"/>
<path d="M415.126 354.707C415.329 353.713 416.199 353 417.209 353H420.602C421.948 353 422.955 354.241 422.685 355.565L422.332 357.293C422.129 358.287 421.259 359 420.249 359H416.856C415.51 359 414.503 357.759 414.773 356.435L415.126 354.707Z" fill="#FFDAB8"/>
<path d="M430.126 354.707C430.329 353.713 431.199 353 432.209 353H435.602C436.948 353 437.955 354.241 437.685 355.565L437.332 357.293C437.129 358.287 436.259 359 435.249 359H431.856C430.51 359 429.503 357.759 429.773 356.435L430.126 354.707Z" fill="#FFDAB8"/>
<path d="M601.298 18.0682H370.729C362.445 18.0682 355.729 24.784 355.729 33.0682V90.5387C355.729 98.823 362.445 105.539 370.729 105.539H601.298C609.582 105.539 616.298 98.823 616.298 90.5387V33.0682C616.298 24.784 609.582 18.0682 601.298 18.0682Z" fill="#0B86DF"/>
<path d="M605.729 18.0682H375.16C366.876 18.0682 360.16 24.784 360.16 33.0682V90.5387C360.16 98.823 366.876 105.539 375.16 105.539H605.729C614.013 105.539 620.729 98.823 620.729 90.5387V33.0682C620.729 24.784 614.013 18.0682 605.729 18.0682Z" fill="#54B7FF"/>
<path d="M469.63 36.9486L473.212 44.2004L481.222 45.3636L475.426 51.008L476.794 58.9788L469.63 55.2157L462.465 58.9788L463.833 51.008L458.038 45.3636L466.048 44.2004L469.63 36.9486Z" fill="#FFE071"/>
<path d="M499.091 36.9485L502.673 44.2003L510.683 45.3634L504.886 51.0078L506.255 58.9786L499.091 55.2155L491.926 58.9786L493.294 51.0078L487.498 45.3634L495.509 44.2003L499.091 36.9485Z" fill="#FFE071"/>
<path d="M528.552 36.9485L532.134 44.2003L540.144 45.3634L534.348 51.0078L535.716 58.9786L528.552 55.2155L521.388 58.9786L522.756 51.0078L516.96 45.3634L524.97 44.2003L528.552 36.9485Z" fill="#FFE071"/>
<path d="M558.013 36.9485L561.595 44.2003L569.605 45.3634L563.809 51.0078L565.177 58.9786L558.013 55.2155L550.849 58.9786L552.217 51.0078L546.421 45.3634L554.431 44.2003L558.013 36.9485Z" fill="#FFE071"/>
<path d="M587.475 36.9485L591.057 44.2003L599.067 45.3634L593.27 51.0078L594.639 58.9786L587.475 55.2155L580.311 58.9786L581.679 51.0078L575.882 45.3634L583.893 44.2003L587.475 36.9485Z" fill="#FFE071"/>
<path d="M585.374 70.0244H462.949C461.864 70.0244 460.984 70.9044 460.984 71.99V72.0049C460.984 73.0904 461.864 73.9704 462.949 73.9704H585.374C586.46 73.9704 587.34 73.0904 587.34 72.0049V71.99C587.34 70.9044 586.46 70.0244 585.374 70.0244Z" fill="white"/>
<path d="M549.366 83.1775H462.949C461.864 83.1775 460.984 84.0575 460.984 85.1431V85.158C460.984 86.2435 461.864 87.1235 462.949 87.1235H549.366C550.451 87.1235 551.331 86.2435 551.331 85.158V85.1431C551.331 84.0575 550.451 83.1775 549.366 83.1775Z" fill="white"/>
<path d="M406.316 93.0429C422.949 93.0429 436.432 79.4982 436.432 62.79C436.432 46.0818 422.949 32.5371 406.316 32.5371C389.684 32.5371 376.2 46.0818 376.2 62.79C376.2 79.4982 389.684 93.0429 406.316 93.0429Z" fill="#71DCFF"/>
<mask id="mask0" mask-type="alpha" maskUnits="userSpaceOnUse" x="376" y="32" width="61" height="62">
<path d="M406.316 93.0429C422.949 93.0429 436.432 79.4982 436.432 62.79C436.432 46.0818 422.949 32.5371 406.316 32.5371C389.684 32.5371 376.2 46.0818 376.2 62.79C376.2 79.4982 389.684 93.0429 406.316 93.0429Z" fill="white"/>
</mask>
<g mask="url(#mask0)">
<path d="M397.697 59.0227C390.023 58.3 380.51 67.354 376.713 71.9716C376.913 75.4846 377.672 82.9932 379.111 84.9205C380.55 86.8477 395.299 92.75 402.494 95.4602C417.982 93.754 446.441 86.667 436.368 71.9716C423.778 53.6022 407.29 59.9261 397.697 59.0227Z" fill="white"/>
</g>
<path d="M422.018 24.8889C421.345 19.4786 416.127 18.6896 413.603 18.9714C412.2 18.126 409.395 14.7445 403.504 15.5899C397.613 16.4352 390.881 19.8167 392.564 27.4249C392.564 27.4249 391.152 42.0753 401.922 42.0753C401.922 45.4716 410.338 62.7201 410.338 52.3978C410.338 42.0753 408.896 49.8507 415.734 42.0753C419.93 40.5697 422.859 31.6518 422.018 24.8889Z" fill="#2C2770"/>
<path d="M415.134 19.875C420.597 19.875 425.027 15.4258 425.027 9.9375C425.027 4.44917 420.597 0 415.134 0C409.67 0 405.241 4.44917 405.241 9.9375C405.241 15.4258 409.67 19.875 415.134 19.875Z" fill="#2C2770"/>
<path d="M417.81 30.8064V33.3424C418.932 33.0607 421.176 33.0043 421.176 35.0332C421.176 37.5692 419.493 39.26 417.81 38.4146C417.592 41.0495 416.181 46.2508 411.985 48.4191C412.136 50.4058 412.575 53.2576 413.602 55.3218C414.949 58.027 417.53 59.2668 418.652 59.5486C416.969 61.521 412.256 65.4665 406.87 65.4665C401.484 65.4665 397.333 61.521 395.93 59.5486C396.772 59.2668 398.96 58.1961 400.979 56.1672C402.569 54.5701 402.873 50.7729 402.793 47.9919C399.296 45.6288 398.229 40.8896 397.613 38.4146C396.491 38.6964 394.247 38.5837 394.247 35.8785C394.247 33.1734 396.772 33.0607 397.613 33.3424V30.8064C399.296 31.0882 403.672 30.9754 407.712 28.2703C411.751 25.5651 412.761 24.3253 412.761 24.0435C412.761 25.4524 413.379 28.0463 414.444 29.1156C416.127 30.8064 417.249 30.5246 417.81 30.8064Z" fill="#FFAE64"/>
<path d="M410.763 42.3788L406.935 44.3019C407.208 44.8514 408.083 45.5657 409.396 45.1261C410.709 44.6865 410.855 43.2946 410.763 42.3788Z" fill="white"/>
<path d="M402.558 30.8402H399.825C399.371 30.8402 399.004 31.2078 399.004 31.6613V31.6675C399.004 32.121 399.371 32.4886 399.825 32.4886H402.558C403.012 32.4886 403.379 32.121 403.379 31.6675V31.6613C403.379 31.2078 403.012 30.8402 402.558 30.8402Z" fill="#2C2770"/>
<path d="M413.498 30.8402H410.764C410.31 30.8402 409.943 31.2078 409.943 31.6613V31.6675C409.943 32.121 410.31 32.4886 410.764 32.4886H413.498C413.951 32.4886 414.319 32.121 414.319 31.6675V31.6613C414.319 31.2078 413.951 30.8402 413.498 30.8402Z" fill="#2C2770"/>
<path d="M411.857 35.4116C412.409 35.4116 412.857 34.9639 412.857 34.4116C412.857 33.8593 412.409 33.4116 411.857 33.4116C411.305 33.4116 410.857 33.8593 410.857 34.4116C410.857 34.9639 411.305 35.4116 411.857 35.4116Z" fill="black"/>
<path d="M405.567 31.9391V41.8293H408.028" stroke="black" stroke-width="0.6"/>
<path d="M401.465 35.4116C402.017 35.4116 402.465 34.9639 402.465 34.4116C402.465 33.8593 402.017 33.4116 401.465 33.4116C400.913 33.4116 400.465 33.8593 400.465 34.4116C400.465 34.9639 400.913 35.4116 401.465 35.4116Z" fill="black"/>
<path d="M419.242 34.9611C419.515 35.6021 419.57 36.9391 417.601 37.1589" stroke="black" stroke-width="0.6"/>
<path d="M395.86 34.9611C395.587 35.6021 395.532 36.9391 397.501 37.1589" stroke="black" stroke-width="0.6"/>
<mask id="mask1" mask-type="alpha" maskUnits="userSpaceOnUse" x="394" y="24" width="28" height="42">
<path d="M417.81 30.8064V33.3424C418.932 33.0607 421.176 33.0043 421.176 35.0332C421.176 37.5692 419.493 39.26 417.81 38.4146C417.592 41.0495 416.181 46.2508 411.985 48.4191C412.136 50.4058 412.575 53.2576 413.602 55.3218C414.949 58.027 417.53 59.2668 418.652 59.5486C416.969 61.521 412.256 65.4664 406.87 65.4664C401.484 65.4664 397.333 61.521 395.93 59.5486C396.772 59.2668 398.96 58.1961 400.979 56.1672C402.569 54.5701 402.873 50.7729 402.793 47.9919C399.296 45.6288 398.229 40.8896 397.613 38.4146C396.491 38.6964 394.247 38.5837 394.247 35.8785C394.247 33.1734 396.772 33.0607 397.613 33.3424V30.8064C399.296 31.0882 403.672 30.9754 407.712 28.2703C411.751 25.5651 412.761 24.3253 412.761 24.0435C412.761 25.4524 413.379 28.0463 414.444 29.1156C416.127 30.8064 417.249 30.5246 417.81 30.8064Z" fill="white"/>
</mask>
<g mask="url(#mask1)">
<path d="M402.012 47.5986C402.741 48.0565 405.075 49.247 407.482 49.247C409.766 49.247 411.903 48.5044 412.582 48.194L412.678 48.1481C412.65 48.162 412.618 48.1774 412.582 48.194L401.739 53.3679L402.012 47.5986Z" fill="#FF8282"/>
</g>
<path d="M306.104 614.28L294.303 604.165C288.025 598.784 289.226 582.35 289.226 582.35L272.348 581.437V599.683L269.612 609.263L304.736 616.105L306.104 614.28Z" fill="#FFAE64"/>
<path d="M300.213 625.228H311.49C312.957 625.228 314.313 624.449 315.053 623.182C316.169 621.268 315.58 618.809 313.736 617.581C311.506 616.097 308.252 613.891 304.28 611.087C296.525 605.613 293.332 601.964 293.332 601.964C293.332 601.964 288.77 604.701 281.928 604.701C275.086 604.701 271.436 599.683 271.436 599.683C268.5 607.023 268.395 615.192 271.141 622.605L271.436 623.403L284.665 624.316L286.946 622.491L292.979 624.215C295.332 624.887 297.766 625.228 300.213 625.228Z" fill="#2C2770"/>
<path d="M183.854 614.28L195.656 604.165C201.933 598.784 200.732 582.35 200.732 582.35L217.61 581.437V599.683L220.347 609.263L185.223 616.105L183.854 614.28Z" fill="#FFAE64"/>
<path d="M189.746 625.228H178.469C177.002 625.228 175.646 624.449 174.906 623.182C173.79 621.268 174.379 618.809 176.223 617.581C178.453 616.097 181.707 613.891 185.679 611.087C193.434 605.613 196.627 601.964 196.627 601.964C196.627 601.964 201.189 604.701 208.031 604.701C214.873 604.701 218.522 599.683 218.522 599.683C221.458 607.023 221.564 615.192 218.818 622.605L218.522 623.403L205.294 624.316L203.013 622.491L196.98 624.215C194.627 624.887 192.193 625.228 189.746 625.228Z" fill="#2C2770"/>
<path d="M222.983 329.045L226.733 310.482L302.911 308.201L307.616 343.962C309.038 354.768 309.497 365.678 308.988 376.565L298.806 594.21H271.892L266.418 376.168L226.733 594.21H197.995L220.347 384.835L220.143 382.656C218.463 364.743 219.42 346.68 222.983 329.045Z" fill="#2C2770"/>
<mask id="mask2" mask-type="alpha" maskUnits="userSpaceOnUse" x="197" y="308" width="112" height="287">
<path d="M222.071 329.045L225.821 310.482L301.999 308.201L306.704 343.962C308.126 354.768 308.585 365.678 308.076 376.565L297.894 594.21H270.98L265.506 376.168L225.821 594.21H197.083L219.435 384.835L219.23 382.656C217.551 364.743 218.508 346.68 222.071 329.045Z" fill="white"/>
</mask>
<g mask="url(#mask2)">
<path d="M231.295 308.657C228.862 320.821 223.996 355.732 223.996 398.063C223.996 398.063 208.791 547.074 201.189 595.122" stroke="white"/>
<path d="M266.875 376.624C269.612 383.466 275.177 406.274 275.542 442.766C275.907 479.259 275.694 558.934 275.542 594.21" stroke="white"/>
</g>
<path d="M359.639 189.525L337.576 200.732L340.001 225.045L363.136 214.834C375.708 209.285 384.551 197.672 386.556 184.077L394.479 130.367L400.856 123.104L405.807 116.685C407.503 114.486 408.13 111.646 407.517 108.937C407.073 106.972 405.745 105.323 403.921 104.469L394.712 100.157L400.779 85.5254C401.368 84.1044 400.551 82.4928 399.056 82.1289C397.967 81.8636 396.834 82.354 396.281 83.3298L386.98 99.7583L384.377 99.3237C383.082 99.1074 381.796 99.7591 381.205 100.932L378.186 106.918C377.35 108.577 377.117 110.474 377.526 112.285L379.902 122.787L359.639 189.525Z" fill="#FF9330"/>
<path d="M401.037 103.181L395.566 113.68C395.023 114.723 393.766 115.166 392.689 114.695C391.666 114.248 391.13 113.113 391.435 112.038L392.342 108.841" stroke="black"/>
<path d="M406.029 105.634L399.428 115.573C398.806 116.509 397.566 116.803 396.59 116.247C395.598 115.681 395.226 114.435 395.746 113.418L396.008 112.906" stroke="black"/>
<path d="M406.875 113.25L401.508 120.779C400.828 121.733 399.535 122.018 398.516 121.438C397.532 120.876 397.107 119.678 397.519 118.622L398.512 116.074" stroke="black"/>
<path d="M388.83 100.567L398.147 104.526C398.932 104.86 399.324 105.745 399.043 106.55C398.436 108.291 396.731 109.402 394.893 109.253L386.371 108.564C388.022 109.631 390.273 115.532 390.503 121.646" stroke="black"/>
<path d="M225.584 210.606L246.234 205.187H299.679C306.12 205.187 312.53 204.298 318.728 202.545L349.983 193.706L355.457 221.746L309.387 249.691L305.246 266.768L308.87 292.476C310.335 302.864 302.133 312.087 291.645 311.845L229.81 310.419C225.283 310.315 221.745 306.477 222.008 301.957L224.027 267.228L216.729 281.257L190.329 275.565L199.744 236.908C202.873 224.06 212.793 213.962 225.584 210.606Z" fill="#54B7FF"/>
<path fill-rule="evenodd" clip-rule="evenodd" d="M246.234 205.187L225.584 210.606C212.793 213.962 202.873 224.06 199.744 236.908L190.329 275.565L216.729 281.257L224.027 267.228L191.249 468.842C190.762 471.834 193.029 474.567 196.059 474.643L220.283 475.247L250.729 362.5V212H277.229L283.229 362.5L300.174 477.238L324.948 477.856C327.996 477.932 330.402 475.286 330.037 472.259L305.246 266.768L309.387 249.691L355.457 221.746L349.983 193.706L318.728 202.545C312.53 204.298 306.12 205.187 299.679 205.187H246.234Z" fill="#FFE071"/>
<path d="M286.729 164L273.729 162" stroke="black"/>
<path d="M246.377 200.617C248.255 195.925 247.942 180.674 247.551 173.635C256.162 175.2 273.031 181.026 271.622 191.819C270.213 202.611 274.166 205.31 276.319 205.31C278.667 210.393 280.193 221.147 267.512 223.493C254.831 225.839 244.224 214.694 240.506 208.829C241.68 208.047 244.498 205.31 246.377 200.617Z" fill="#FF9330"/>
<mask id="mask3" mask-type="alpha" maskUnits="userSpaceOnUse" x="240" y="173" width="39" height="51">
<path d="M246.691 200.609C248.558 195.975 248.247 180.913 247.858 173.962C256.414 175.506 273.176 181.261 271.776 191.92C270.376 202.579 274.304 205.244 276.443 205.244C278.777 210.264 280.293 220.885 267.693 223.202C255.092 225.519 244.552 214.513 240.858 208.72C242.024 207.947 244.825 205.244 246.691 200.609Z" fill="white"/>
</mask>
<g mask="url(#mask3)">
<path d="M273.379 201.321C254.383 199.256 248.257 183.253 247.568 175.51L273.379 189.964C281.294 194.61 292.376 203.386 273.379 201.321Z" fill="#D76767"/>
</g>
<path d="M248.067 175.237C247.685 181.667 255.525 193.357 269.868 192.773C278.241 192.432 280.356 182.859 282.489 172.314C284.01 164.796 286.886 156.785 285.931 151.27L273.31 147.179C275.031 149.517 274.466 149 268.729 149C263.052 149 260.833 145.754 258.729 144C257.582 151.015 248.729 143.671 248.729 147.179C248.729 149.984 250.729 168.357 250.729 170.5C248.729 170.5 249.767 164 248.067 162.961C246.155 161.792 242.331 160.974 242.331 167.053C242.331 173.132 246.155 175.042 248.067 175.237Z" fill="#FF9330"/>
<path d="M248.729 170.5C248.729 170.5 249.729 162.5 246.729 162.5C240.405 162.5 242.729 170 242.729 170C236.896 159 238.729 138.5 255.729 133.5C281.387 125.954 293.229 149.79 285.729 151C270.229 153.5 258.729 146 256.729 147.5C254.729 149 252.729 163 251.729 168C250.929 172 249.562 171.667 248.729 170.5Z" fill="#2C2770"/>
<path d="M265.553 178.156L271.939 181.349C271.483 182.261 270.023 183.447 267.834 182.717C265.644 181.987 265.401 179.676 265.553 178.156Z" fill="white"/>
<path d="M279.238 158.997H283.8C284.555 158.997 285.168 159.61 285.168 160.365C285.168 161.121 284.555 161.734 283.8 161.734H279.238C278.482 161.734 277.869 161.121 277.869 160.365C277.869 159.61 278.482 158.997 279.238 158.997Z" fill="#2C2770"/>
<path d="M260.992 158.997H265.553C266.309 158.997 266.922 159.61 266.922 160.365C266.922 161.121 266.309 161.734 265.553 161.734H260.992C260.236 161.734 259.623 161.121 259.623 160.365C259.623 159.61 260.236 158.997 260.992 158.997Z" fill="#2C2770"/>
<path d="M263.728 167.295C262.972 167.295 262.36 166.683 262.36 165.927C262.36 165.171 262.972 164.559 263.728 164.559C264.484 164.559 265.096 165.171 265.096 165.927C265.096 166.683 264.484 167.295 263.728 167.295Z" fill="black"/>
<path d="M274.22 160.822V177.243H270.115" stroke="black"/>
<path d="M279.062 167.295C278.306 167.295 277.693 166.683 277.693 165.927C277.693 165.171 278.306 164.559 279.062 164.559C279.818 164.559 280.43 165.171 280.43 165.927C280.43 166.683 279.818 167.295 279.062 167.295Z" fill="black"/>
<path fill-rule="evenodd" clip-rule="evenodd" d="M271.729 165.5C271.729 168.814 269.043 171.5 265.729 171.5C262.416 171.5 259.729 168.814 259.729 165.5C259.729 164.67 259.897 164.066 260.168 163.619C260.437 163.175 260.829 162.848 261.345 162.607C262.408 162.109 263.926 162 265.729 162C267.533 162 269.051 162.109 270.113 162.607C270.629 162.848 271.022 163.175 271.291 163.619C271.561 164.066 271.729 164.67 271.729 165.5Z" stroke="black"/>
<path d="M275.168 163.619C274.048 162.576 272.756 162.576 271.291 163.619" stroke="black"/>
<path fill-rule="evenodd" clip-rule="evenodd" d="M286.729 165.5C286.729 168.814 284.043 171.5 280.729 171.5C277.416 171.5 274.729 168.814 274.729 165.5C274.729 164.67 274.897 164.066 275.168 163.619C275.437 163.175 275.829 162.848 276.345 162.607C277.408 162.109 278.926 162 280.729 162C282.533 162 284.051 162.109 285.113 162.607C285.629 162.848 286.022 163.175 286.291 163.619C286.561 164.066 286.729 164.67 286.729 165.5Z" stroke="black"/>
<path d="M259.729 164L246.729 162" stroke="black"/>
<path d="M348.958 259.461L297.925 266.595C297.201 266.696 296.59 267.184 296.331 267.868L282.397 304.72C281.861 306.136 283.033 307.611 284.534 307.409L334.988 300.631C335.688 300.537 336.287 300.08 336.563 299.43L352.064 262.881C352.439 261.996 352.132 260.97 351.332 260.436L350.344 259.778C349.936 259.506 349.443 259.393 348.958 259.461Z" fill="#2C2770"/>
<path d="M350.034 261.58L301.686 268.348C299.876 268.601 298.349 269.822 297.702 271.531L286.175 302.016C284.836 305.557 287.766 309.244 291.518 308.74L335.255 302.864C337.026 302.626 338.536 301.461 339.215 299.808L353.225 265.691C354.105 263.548 352.328 261.259 350.034 261.58Z" fill="#6B8CFF"/>
<path d="M322.62 289.053C324.826 287.39 325.401 284.434 323.905 282.449C322.409 280.465 319.409 280.203 317.203 281.865C314.998 283.527 314.423 286.484 315.919 288.468C317.415 290.453 320.415 290.715 322.62 289.053Z" fill="#2C2770"/>
<path d="M269.114 289.448L215.229 281L190.729 275.5L188.187 288.536C186.383 297.781 193.447 306.38 202.866 306.407L265.105 306.585L271.255 310.119C271.437 310.223 271.627 310.313 271.823 310.388L280.239 313.597C280.338 313.634 280.439 313.664 280.541 313.686L294.502 316.661C295.229 316.816 295.978 316.53 296.416 315.93C297.208 314.846 296.644 313.304 295.339 312.988L285.758 310.662H300.655C301.225 310.662 301.749 310.349 302.019 309.848C302.547 308.872 301.908 307.674 300.803 307.567L288.856 306.42L306.475 304.864C307.155 304.804 307.747 304.374 308.014 303.746C308.515 302.569 307.699 301.251 306.422 301.175L290.508 300.23L305.333 297.893C306.345 297.733 307.131 296.923 307.26 295.906C307.431 294.556 306.4 293.352 305.039 293.313L285.758 292.766L287.211 291.855L290.211 283.855L281.195 285.362C280.749 285.437 280.31 285.549 279.883 285.698L269.114 289.448Z" fill="#FF9330"/>
<path d="M200.372 339.934C207.772 331.187 226.457 334.399 233.231 337.804C215.337 370.366 199.551 347.371 194.068 380.859C191.722 395.192 174.229 381.561 175.574 406.714C176.741 428.538 161.784 430.43 160.039 442.193C158.294 453.955 153.571 463.943 143.407 467.367C128.554 472.369 117.142 454.285 128.359 445.781C139.576 437.278 117.727 424.683 134.925 414.626C152.124 404.569 133.689 381.281 155.358 375.26C177.027 369.238 169.058 356.404 176.06 349.649C183.062 342.895 191.121 350.868 200.372 339.934Z" fill="#6B8CFF"/>
<path d="M123.198 271.921C126.963 259.499 144.441 260.921 151.941 266.421C141.441 275.921 125.658 275.557 134.89 312.988C138.841 329.008 116.902 322.329 129.489 348.021C140.41 370.314 123.011 378.855 126.441 391.921C129.87 404.988 132.192 417.339 123.198 425.421C110.054 437.232 94.5409 422.28 102.364 408.421C110.187 394.563 84.6977 392.054 98.0187 373.921C111.34 355.788 82.6205 343.318 102.364 327.421C122.108 311.525 101.201 303.584 105.441 293.421C109.68 283.259 118.491 287.449 123.198 271.921Z" fill="#1BE3B3"/>
<path d="M28.1245 340.767C21.357 333.719 5.59723 337.441 0 340.695C16.9611 367.442 29.2138 347.048 35.6427 375.241C38.3943 387.307 52.5928 374.787 52.7643 396.251C52.9131 414.875 65.7628 415.692 67.8667 425.604C69.9705 435.515 74.5204 443.761 83.3647 446.134C96.2894 449.602 105.07 433.616 95.0618 426.978C85.0536 420.34 103.02 408.47 87.8315 400.827C72.6428 393.184 87.1384 372.401 68.3498 368.428C49.5613 364.454 55.6822 353.116 49.359 347.742C43.0358 342.368 36.5839 349.576 28.1245 340.767Z" fill="#54B7FF"/>
<path d="M115.24 482.715C113.494 443.322 106.247 334.86 128.441 281.531C130.376 276.881 134.441 266.921 144.941 266.921" stroke="#4F4F4F"/>
<path d="M94.6762 493.211C93.668 455.576 77.612 373.415 21.4541 345.851" stroke="#4F4F4F"/>
<path d="M132.612 493.528C136.158 452.682 158.96 364.413 221.801 338.105" stroke="#4F4F4F"/>
<path d="M82.4409 475.421H142.441L157.912 591.456C160.31 609.441 146.319 625.421 128.175 625.421H96.7064C78.5627 625.421 64.5716 609.441 66.9696 591.456L82.4409 475.421Z" fill="#A3BAFF"/>
<path d="M150.441 475.421H73.4407V486.421H150.441V475.421Z" fill="#CCD9FF"/>
<path fill-rule="evenodd" clip-rule="evenodd" d="M889.401 620.568C891.433 620.568 893.025 618.82 892.836 616.797L876.631 443L866.688 444.068L885.972 617.499C886.166 619.246 887.643 620.568 889.401 620.568Z" fill="#627AC1"/>
<path fill-rule="evenodd" clip-rule="evenodd" d="M860.401 620.568C862.433 620.568 864.025 618.82 863.836 616.797L847.631 443L837.688 444.068L856.972 617.499C857.166 619.246 858.643 620.568 860.401 620.568Z" fill="#627AC1"/>
<path fill-rule="evenodd" clip-rule="evenodd" d="M773.475 620.568C771.443 620.568 769.851 618.82 770.04 616.797L786.245 443L796.188 444.068L776.904 617.499C776.71 619.246 775.233 620.568 773.475 620.568Z" fill="#627AC1"/>
<path d="M771.188 431H880.188C884.606 431 888.188 434.582 888.188 439C888.188 443.418 884.606 447 880.188 447H771.188C766.77 447 763.188 443.418 763.188 439C763.188 434.582 766.77 431 771.188 431Z" fill="#A3BAFF"/>
<path d="M739.499 614.052L751.3 603.937C757.578 598.556 756.377 582.122 756.377 582.122L773.255 581.209V599.455L775.992 609.035L740.868 615.877L739.499 614.052Z" fill="#FFAE64"/>
<path d="M743.055 614.754L774.167 606.754C776.921 609.232 777.884 613.14 776.597 616.614L774.167 623.175L760.939 624.088L760.026 620.895L753.286 623.422C750.504 624.466 747.557 625 744.585 625H734.069C732.63 625 731.299 624.236 730.574 622.992C729.454 621.073 730.091 618.611 732.001 617.475L745.429 609.491L741.814 612.12C741.078 612.656 740.994 613.723 741.638 614.367C742.009 614.737 742.548 614.885 743.055 614.754Z" fill="#2C2770"/>
<path d="M792.499 614.435L804.3 604.32C810.578 598.939 809.377 582.505 809.377 582.505L826.254 581.592V599.838L828.991 609.418L793.867 616.26L792.499 614.435Z" fill="#FFAE64"/>
<path d="M796.055 615.137L827.166 607.137C829.92 609.615 830.883 613.523 829.596 616.997L827.166 623.559L813.938 624.471L813.026 621.278L806.285 623.805C803.503 624.849 800.556 625.383 797.585 625.383H787.068C785.629 625.383 784.298 624.619 783.573 623.376C782.453 621.456 783.09 618.994 785 617.858L798.429 609.874L794.814 612.503C794.077 613.039 793.993 614.106 794.638 614.75C795.008 615.12 795.547 615.268 796.055 615.137Z" fill="#2C2770"/>
<path d="M804.246 594.911H829.228V461L861.484 444.328C879.808 434.857 888.59 413.519 882.242 393.893L807.228 392.5L744.855 432.304C736.562 437.596 732.144 447.26 733.567 456.995L753.729 594.911H776.229L777.729 463L785.232 459.07C785.176 460.305 785.234 461.556 785.412 462.807L804.246 594.911Z" fill="#2C2770"/>
<path d="M882.728 394C879.728 420.5 869.728 436 820.228 454.5L825.728 595.5" stroke="white"/>
<path d="M786.229 447L768.229 458L771.729 594.5" stroke="white"/>
<path d="M921.697 337.592L900.876 327.694L884.322 343.317L903.692 353.851C915.764 360.416 930.36 360.325 942.349 353.609L985.159 329.63L994.145 330.201H1001.7C1004.28 330.201 1006.74 329.047 1008.39 327.054C1009.58 325.608 1010.04 323.69 1009.64 321.858L1007.58 312.612L1021.82 308.762C1023.2 308.388 1023.93 306.868 1023.35 305.558C1022.92 304.604 1021.92 304.047 1020.88 304.195L1003.47 306.682L1002.38 304.647C1001.76 303.489 1000.46 302.87 999.17 303.118L993.378 304.232C991.554 304.582 989.909 305.557 988.725 306.988L982.456 314.564L921.697 337.592Z" fill="#FFAE64"/>
<path d="M1008.94 318.998L998.087 320.937C997.009 321.129 995.966 320.454 995.701 319.392C995.448 318.382 995.981 317.341 996.947 316.955L999.822 315.805" stroke="black"/>
<path d="M1009.98 324.076L998.888 324.862C997.844 324.936 996.921 324.189 996.776 323.153C996.629 322.099 997.337 321.115 998.383 320.921L998.909 320.823" stroke="black"/>
<path d="M1004.84 329.033L996.232 329.359C995.14 329.4 994.194 328.609 994.043 327.527C993.897 326.481 994.539 325.486 995.552 325.189L997.997 324.472" stroke="black"/>
<path d="M1003.93 308.506L1006.31 317.632C1006.51 318.401 1006.08 319.193 1005.32 319.444C1003.7 319.987 1001.91 319.361 1000.97 317.922L996.629 311.243C996.781 313.068 993.709 318.086 989.33 321.735" stroke="black"/>
<path d="M758.534 291.248L780.617 297.869L782.419 320.561L760.986 315.384C747.629 312.158 736.863 302.3 732.473 289.279L716.8 242.78L709.752 237.178L704.15 232.113C702.231 230.378 701.186 227.877 701.299 225.293C701.381 223.418 702.325 221.686 703.856 220.601L711.585 215.123L703.6 202.714C702.825 201.509 703.307 199.896 704.617 199.315C705.572 198.891 706.692 199.153 707.36 199.956L718.607 213.478L720.779 212.699C722.016 212.256 723.397 212.669 724.187 213.718L727.737 218.429C728.854 219.912 729.421 221.738 729.34 223.594L728.909 233.419L758.534 291.248Z" fill="#FFAE64"/>
<path d="M706.287 218.943L713.041 227.663C713.711 228.528 714.937 228.727 715.846 228.117C716.711 227.537 717.014 226.408 716.556 225.473L715.195 222.692" stroke="black"/>
<path d="M702.116 222.018L709.814 230.037C710.538 230.792 711.724 230.857 712.527 230.186C713.343 229.503 713.477 228.298 712.832 227.452L712.507 227.026" stroke="black"/>
<path d="M702.602 229.14L708.768 235.154C709.55 235.917 710.783 235.964 711.62 235.263C712.43 234.585 712.621 233.417 712.069 232.517L710.736 230.345" stroke="black"/>
<path d="M717.045 214.525L709.159 219.698C708.495 220.134 708.282 221.01 708.673 221.701C709.517 223.197 711.265 223.933 712.925 223.493L720.623 221.45C719.287 222.702 718.2 228.483 719.001 234.127" stroke="black"/>
<path d="M879.39 303.911L860.626 297.222C855.049 297.222 840.548 296.94 827.163 295.814C813.778 294.687 789.518 295.814 769.998 292.997L765.815 318.347C774.18 322.572 786.729 326.797 803.46 329.614C797.883 346.514 801.601 349.33 806.249 354.963L810.432 373.272L800.296 397H882.934L874.379 371L879.397 342.262L896.877 353.555L913.609 332.43L888.199 309.209C885.645 306.875 882.65 305.074 879.39 303.911Z" fill="#6B8CFF"/>
<mask id="mask4" mask-type="alpha" maskUnits="userSpaceOnUse" x="765" y="292" width="149" height="105">
<path d="M879.39 303.911L860.626 297.222C855.049 297.222 840.548 296.94 827.163 295.814C813.778 294.687 789.518 295.814 769.998 292.997L765.815 318.347C774.18 322.572 786.729 326.797 803.46 329.614C797.883 346.514 801.601 349.33 806.249 354.963L810.432 373.272L800.296 397H882.934L874.379 371L879.397 342.262L896.877 353.555L913.609 332.43L888.199 309.209C885.645 306.875 882.65 305.074 879.39 303.911Z" fill="white"/>
</mask>
<g mask="url(#mask4)">
<path d="M795.008 280.225C801.851 307.594 727.498 324.928 732.515 357.771C737.533 390.614 864.344 468.16 909.503 444.44C954.662 420.72 952.837 379.21 867.081 381.035C781.324 382.86 761.253 344.999 781.78 324.928C802.307 304.857 862.519 366.438 864.344 340.893C866.168 315.349 789.078 307.594 820.097 288.892C845.516 273.566 855.677 321.279 883.502 327.209C905.763 331.953 918.018 323.712 921.363 318.998C942.498 329.185 974.642 352.388 934.135 363.701C893.629 375.014 824.506 360.508 795.008 351.841" stroke="#A3B7FF" stroke-width="7"/>
</g>
<path d="M817.747 239.325C818.87 230.342 827.572 229.032 831.783 229.5C834.122 228.096 838.801 222.482 848.626 223.885C858.452 225.289 869.681 230.903 866.874 243.536C866.874 243.536 873.424 259.444 875.295 265.994C880.91 280.03 872.786 290.211 861.259 291.259C845.819 292.662 852.837 291.259 828.976 294.066C805.114 296.873 803.711 277.223 809.325 264.59C814.94 251.958 816.343 250.554 817.747 239.325Z" fill="#2C2770"/>
<path d="M824.765 249.15V253.361C822.893 252.893 819.15 252.8 819.15 256.168C819.15 260.379 821.958 263.187 824.765 261.783C825.129 266.158 827.483 274.794 834.481 278.394C834.23 281.693 833.497 286.428 831.783 289.855C829.537 294.347 825.233 296.405 823.361 296.873C826.168 300.148 834.029 306.699 843.012 306.699C851.995 306.699 858.92 300.148 861.259 296.873C859.855 296.405 856.206 294.628 852.837 291.259C850.185 288.607 849.679 282.302 849.812 277.685C855.645 273.761 857.424 265.892 858.452 261.783C860.323 262.251 864.066 262.064 864.066 257.572C864.066 253.08 859.855 252.893 858.452 253.361V249.15C855.644 249.618 848.346 249.431 841.608 244.939C834.871 240.448 833.187 238.389 833.187 237.921C833.187 240.261 832.155 244.568 830.379 246.343C827.572 249.15 825.701 248.682 824.765 249.15Z" fill="#FFAE64"/>
<path d="M836.518 268.365L842.905 271.558C842.448 272.47 840.989 273.656 838.799 272.926C836.61 272.197 836.366 269.885 836.518 268.365Z" fill="white"/>
<path d="M850.203 249.206H854.764C855.52 249.206 856.133 249.819 856.133 250.575C856.133 251.331 855.52 251.943 854.764 251.943H850.203C849.447 251.943 848.834 251.331 848.834 250.575C848.834 249.819 849.447 249.206 850.203 249.206Z" fill="#2C2770"/>
<path d="M831.957 249.206H836.518C837.274 249.206 837.887 249.819 837.887 250.575C837.887 251.331 837.274 251.943 836.518 251.943H831.957C831.201 251.943 830.588 251.331 830.588 250.575C830.588 249.819 831.201 249.206 831.957 249.206Z" fill="#2C2770"/>
<path d="M834.694 256.505C833.938 256.505 833.326 255.892 833.326 255.136C833.326 254.381 833.938 253.768 834.694 253.768C835.45 253.768 836.062 254.381 836.062 255.136C836.062 255.892 835.45 256.505 834.694 256.505Z" fill="black"/>
<path d="M845.185 251.031V267.453H841.08" stroke="black"/>
<path d="M852.028 256.505C851.272 256.505 850.66 255.892 850.66 255.136C850.66 254.381 851.272 253.768 852.028 253.768C852.784 253.768 853.396 254.381 853.396 255.136C853.396 255.892 852.784 256.505 852.028 256.505Z" fill="black"/>
<path d="M822.378 256.049C821.922 257.113 821.83 259.333 825.115 259.698" stroke="black"/>
<path d="M861.376 256.049C861.832 257.113 861.923 259.333 858.639 259.698" stroke="black"/>
<mask id="mask5" mask-type="alpha" maskUnits="userSpaceOnUse" x="819" y="237" width="46" height="70">
<path d="M824.765 249.15V253.361C822.893 252.893 819.15 252.8 819.15 256.168C819.15 260.379 821.958 263.187 824.765 261.783C825.129 266.158 827.483 274.794 834.481 278.394C834.23 281.693 833.497 286.428 831.783 289.855C829.537 294.347 825.233 296.405 823.361 296.873C826.168 300.148 834.029 306.699 843.012 306.699C851.995 306.699 858.92 300.148 861.259 296.873C859.855 296.405 856.206 294.628 852.837 291.259C850.185 288.607 849.679 282.302 849.812 277.685C855.645 273.761 857.424 265.892 858.452 261.783C860.323 262.251 864.066 262.064 864.066 257.572C864.066 253.08 859.855 252.893 858.452 253.361V249.15C855.644 249.618 848.346 249.431 841.608 244.939C834.871 240.448 833.187 238.389 833.187 237.921C833.187 240.261 832.155 244.568 830.379 246.343C827.572 249.15 825.701 248.682 824.765 249.15Z" fill="white"/>
</mask>
<g mask="url(#mask5)">
<path d="M851.115 277.032C849.899 277.792 846.006 279.769 841.992 279.769C838.182 279.769 834.618 278.536 833.486 278.02L833.325 277.944C833.372 277.967 833.425 277.993 833.486 278.02L851.572 286.611L851.115 277.032Z" fill="#FF8282"/>
</g>
</svg>
